<?xml version="1.0" encoding="utf-8"?>
<!-- Generator: Adobe Illustrator 19.2.0, SVG Export Plug-In . SVG Version: 6.00 Build 0)  -->
<svg version="1.1" id="Calque_1" xmlns="http://www.w3.org/2000/svg" xmlns:xlink="http://www.w3.org/1999/xlink" x="0px" y="0px"
	 viewBox="0 0 595.3 841.9" style="enable-background:new 0 0 595.3 841.9;" xml:space="preserve">
<style type="text/css">
	.st0{fill:#ECF7F2;}
	.st1{fill:#E8F4EF;}
	.st2{fill:#C4CBD1;}
	.st3{fill:#E6F1EE;}
	.st4{fill:#AAB8BB;}
	.st5{fill:#BDCCCF;}
	.st6{fill:#8C9EA7;}
	.st7{fill:#66798A;}
	.st8{fill:#728593;}
	.st9{fill:#364B68;}
	.st10{fill:#153753;}
	.st11{fill:#375970;}
	.st12{fill:#4A6275;}
	.st13{fill:#647A89;}
	.st14{fill:#021945;}
	.st15{fill:#01113F;}
</style>
<g>
	<path class="st0" d="M437,261.8c0.1,3.4-0.1,6.8-0.5,10.1c0.3-3.4,0.4-6.8,0.2-10.3c-0.1-0.7,0-1.3,0.1-2c0.1-0.5,0.2-1,0.3-1.5
		c0,0.4,0,0.8,0,1.2C437,260.2,437,261,437,261.8z"/>
	<path class="st0" d="M256.3,406.5C256.3,406.5,256.3,406.5,256.3,406.5c-0.1,0-0.1,0-0.2,0C256.2,406.5,256.2,406.5,256.3,406.5z"
		/>
	<path class="st0" d="M402.1,747c-0.4,0-0.8-0.1-1.2-0.1c0-0.2,0-0.5,0.1-0.7c0.2,0.1,0.4,0.2,0.5,0.3
		C401.7,746.6,401.9,746.8,402.1,747z"/>
	<path class="st0" d="M442,260.9c0,102.3,0,204.7,0,307c-0.5,0.3-0.9,0.5-1.3,0.7c0,0,0,0,0,0c-0.6,0.1-1.1-0.1-1.6-0.4c0,0,0,0,0,0
		c-0.6-0.5-1.1-1.3-1.5-2.3l0,0c-0.2-0.5-0.4-0.9-0.5-1.4c0,0,0,0,0,0c0,0,0,0,0,0c-0.4-1.8-0.4-3.7-0.4-5.5c0-3.4-0.1-6.8-0.4-10.1
		c0-0.1,0-0.3-0.1-0.4c-1.6-16.9-7.2-32.8-14.3-48.3c-4.6-10.1-9.7-19.9-15.4-29.4c0,0,0,0,0,0c-1.3-2.2-2.6-4.3-3.9-6.4
		c-1.1-1.8-2.3-3.6-3.6-5.3c0,0-0.1-0.1-0.1-0.2c-3.1-4.2-6.5-8.2-10.3-11.8c0,0,0,0,0,0c-0.4-0.6-0.7-1.2-0.7-2.1
		c-6-8-14.2-13.7-22.8-18.1c-9.9-5.1-20.5-8.9-32.1-9c-1.4,0-3.1-0.4-4.3-1.2c-3.9-2.3-8.1-2.7-12.5-2.7c-22.5,0-45-0.1-67.5-0.1
		c-7,0-7,0-7,7c0,109.3,0,218.6,0,327.9c0,1.7,0,3.1,0.1,4.2v4.1c-3.1-4.7-8.8-2.3-12.8-2.8c-9.4-1.2-18.6-3.5-27.6-6.2
		c-29.3-8.6-56.4-22-82.7-37.4c-19.7-11.5-37-25.7-53.6-41c-19.5-17.9-36.3-38.2-50.9-60.2c-2.7-4.1-7.2-6.5-10.1-10.2
		c0,0-0.1-0.1-0.1-0.1c-0.5-0.6-0.9-1.2-1.2-1.9l-0.2-0.4c-0.3-0.6-0.6-1.2-0.8-1.9c0.7,0,1.3,0,2,0c1.2,1.6,2.2,4,4.3,3.5
		c2.3-0.6,2.1-3.5,2.6-5.5c0.3-1.1,0.1-2.3,0.1-3.5V252.2c0-1.3,0.2-2.7-0.1-4c0-0.1,0-0.1,0-0.2c-0.3-1.5-0.8-3.4-2.5-3.7
		c-1.7-0.4-2.5,1.3-3.3,2.5c-2.7,0-3.4,2.6-5,4.1c0-1.8,0.6-3.2,1.4-4.5c0,0,0,0,0,0c1.6-2.4,4.3-4.1,6.1-5.9
		c4.2-4,7.1-8.8,10.1-13.4c7.6-11.6,16.4-22,25.6-32.3c7.7-8.5,15.8-16.7,24-24.7c17.3-16.9,37.2-30.3,57.8-42.9
		c16.9-10.4,35-18.5,53.4-25.4c17.9-6.7,36.2-12.6,55.4-15.2c2.4-0.3,5,1,7.2-0.8c0,104.6,0,209.1,0,313.7c0,2.1-0.9,4.4,0.9,6.2
		c2.4,1.8,5.1,2,8,2c22.3-0.1,44.5,0,66.8-0.1c1.8,0,3.7,0.6,5.2-0.9l0.5,0l0.5,0c8.2-0.1,16.3-1.2,24-4c8.7-2.6,16.9-6.1,24-12
		c0.1-0.1,0.2-0.2,0.4-0.3c0.8-0.6,1.6-1.2,2.4-1.9c0,0,0,0,0,0c1.9-1.1,3.5-2.5,5-4c13.2-12.1,24.5-25.7,32.1-42.2
		c2.3-4.9,5.3-9.4,7.6-14.4c0,0,0,0,0,0c0.3-0.7,0.6-1.3,0.9-2c0.3-0.5,0.6-1,0.9-1.5c0-0.1,0.1-0.2,0.2-0.3
		c-0.2,0.8-0.3,1.6-0.4,2.5c3.4-4.3,4.9-9.5,7.2-14.4c5.2-10.9,7.3-22.6,9.8-34.3c1.4-6.3,0.7-12.6,0.9-18.9
		c0.1-1.8,0.6-3.8,2.5-3.7c1.9,0.1,1.4,2.3,1.5,3.7C442.1,259.9,442,260.4,442,260.9z"/>
	<path class="st1" d="M561.3,631c-0.8,3.3-2.2,6.5-4.2,9.5c-2.6,2.5-4.8,5.4-7.1,8.1c-10.1,11.7-21.1,22.4-33.3,32.1
		c-9.7,7.8-20.6,14.2-27.6,25.3c-2.3,3.6-7.1,6-11.2,7.7c-3,1.3-5,4.6-8.7,4.3c0-0.1,0-0.1,0-0.2c2.4-1.6,4.6-3.5,7.3-5
		c3.7-2,7.8-3.8,10.5-7.3c5.5-7,11-14.2,16.1-21.5c9-12.7,17.7-25.6,24.8-39.5c6.5-12.7,12.8-25.6,17.1-39.2
		c3.9-12.1,7.3-24.4,8.7-37.2c1.2-11.2,3.6-22.3,3.4-33.6c-0.1-7,0.9-14-0.7-20.9c-0.5-2,0.5-4.1,2.5-4.2c2.7-0.3,2.2,2.2,2.4,4
		c0,0.5,0,1,0,1.5c0,36.8,0,73.6,0,110.4c0,1.3,0,2.7,0,4C561,630,561.1,630.6,561.3,631z"/>
	<path class="st2" d="M558,196.9c-2.2-1.4-4-3.3-6.7-4.2c-3.8-1.3-5.5-0.9-5.3,3.7c0.3,7.8,0.1,15.6,0.1,23.5c0,23.3,0,46.6,0,69.9
		c0,1.8,0,3.7,0.3,5.5c0.3,1.4,0.6,2.7-1,3.4c-1.3,0.5-2.6,0.6-3.8-0.1c-1.3-0.7-0.9-1.8-0.9-3c0.7-22.9,0.6-45.8-4.9-68.2
		c-3.8-15.4-10.4-29.8-17.4-44.1c-6.9-13.9-15.5-26.6-24.1-39.3c-5-7.4-12.2-11.5-19.4-15.8c-1.9-1.1-3.6-2.3-4.8-4.1
		c4.6,3.6,9.8,6.2,14.7,9.2c7.6,4.8,12,12.4,17.1,19.3c13.8,18.8,23.6,39.8,31.4,61.6c5.2,14.8,8.3,30.1,8.4,45.9
		c0,11.3,1.5,22.6,0.9,33.9c0,1-0.1,2,1.1,2.6c1.9-1,1.1-2.9,1.1-4.4c-0.1-30.8,0-61.6,0-92.4c0-3-1.3-7,2.5-8.4
		c3.4-1.3,6.2,1.5,9,3.3C556.9,195.1,557.5,196,558,196.9z"/>
	<path class="st2" d="M591.2,244.8C591.2,244.8,591.2,244.8,591.2,244.8c-0.1,0.1-0.3,0.2-0.4,0.2v0l0.3-0.2
		C591.1,244.8,591.2,244.8,591.2,244.8z"/>
	<path class="st3" d="M558,196.9c-2.2-1.4-4-3.3-6.7-4.2c-3.8-1.3-5.5-0.9-5.3,3.7c0.3,7.8,0.1,15.6,0.1,23.5c0,23.3,0,46.6,0,69.9
		c0,1.8,0,3.7,0.3,5.5c0.3,1.4,0.6,2.7-1,3.4c-1.3,0.5-2.6,0.6-3.8-0.1c-1.3-0.7-0.9-1.8-0.9-3c0.7-22.9,0.6-45.8-4.9-68.2
		c-3.8-15.4-10.4-29.8-17.4-44.1c-6.9-13.9-15.5-26.6-24.1-39.3c-5-7.4-12.2-11.5-19.4-15.8c-1.9-1.1-3.6-2.3-4.8-4.1
		c10.3,5.6,20.8,10.8,27.3,21.3c2.7,4.4,7.1,7.5,11.2,10.5c10.9,8,20.5,17.4,29.8,27.1c4.4,4.6,10.6,6.1,15.6,9.5
		C555.7,193.5,557.9,194.3,558,196.9z"/>
	<path class="st1" d="M402.1,747c-0.4,0-0.8-0.1-1.2-0.1c0-0.2,0-0.5,0.1-0.7c0.2,0.1,0.4,0.2,0.5,0.3
		C401.7,746.6,401.9,746.8,402.1,747z"/>
	<path class="st2" d="M591.2,244.8C591.2,244.8,591.2,244.8,591.2,244.8c-0.1,0.1-0.3,0.2-0.4,0.2v0l0.3-0.2
		C591.1,244.8,591.2,244.8,591.2,244.8z"/>
	<path class="st3" d="M591.2,244.8C591.2,244.8,591.2,244.8,591.2,244.8c-0.1,0-0.1,0-0.1,0C591.1,244.8,591.2,244.8,591.2,244.8z"
		/>
	<path class="st4" d="M420.4,324.4c-0.2,0.8-0.3,1.6-0.4,2.5c0,0,0,0,0,0c-3.9,7.6-8.3,14.9-12.2,22.6c-3.8,7.7-8.7,14.9-14.4,21.2
		c-6,6.6-12.1,13.2-19.3,18.6c-0.8,0.6-1.9,0.8-2.7,1.3c0.8-0.6,1.6-1.2,2.4-1.9c0,0,0,0,0,0c12.7-10.2,23.4-22.3,31.7-36.3
		c3.7-6.3,6.8-13.1,10.3-19.6c0.9-1.6,1.5-3.3,2.7-4.6c0,0,0,0,0,0c0.3-0.7,0.6-1.3,0.9-2c0.3-0.5,0.6-1,0.9-1.5
		C420.3,324.6,420.4,324.5,420.4,324.4z"/>
	<path class="st4" d="M436.4,272.2c-0.6,6.2-2,12.4-3.4,18.5c-2.6,11.8-7.4,22.8-12.6,33.6c1.1-4.4,3.8-8.3,5.4-12.5
		c2.9-7.6,6.2-14.9,7.2-23.1c0.4-3.8,1.6-7.5,2.5-11.1C435.9,275.8,436.2,274,436.4,272.2z"/>
	<path class="st4" d="M437,261.8c0.1,3.4-0.1,6.8-0.5,10.1c0.3-3.4,0.4-6.8,0.2-10.3c-0.1-0.7,0-1.3,0.1-2c0.1-0.5,0.2-1,0.3-1.5
		c0,0.4,0,0.8,0,1.2C437,260.2,437,261,437,261.8z"/>
	<path class="st4" d="M442,567.9c-0.5,0.3-0.9,0.5-1.3,0.7c0,0,0,0,0,0c-2.7,1.1-3.8-0.7-3.6-3.6c0-0.2,0-0.3,0-0.5c0,0,0,0,0,0
		c0,0,0,0,0,0c-0.4-1.8-0.4-3.7-0.4-5.5c0-3.4-0.1-6.8-0.4-10.1c0-0.1,0-0.3-0.1-0.4c-1-6.8-2.6-13.5-4.3-20.2
		c-2.5-9.8-6.2-19.1-10.4-28.3c-4.6-9.9-10.2-19.3-15-29.2c0,0,0,0,0,0c-1.3-2.2-2.6-4.3-3.9-6.4c-1.1-1.8-2.3-3.6-3.6-5.3
		c0,0-0.1-0.1-0.1-0.2c-2.5-3.2-5.3-6.4-8-9.5c-0.7-0.8-1.6-1.5-2.2-2.3c0,0,0,0,0,0c-0.4-0.6-0.7-1.2-0.7-2.1
		c5.4,6.7,11.3,12.9,16,20.2c4.5,7.1,8.3,14.7,12.3,22.1c3.6,6.8,7,13.8,9.9,21c3.9,9.7,6.8,19.6,9,29.8c1.8,8.2,2.4,16.4,2.4,24.7
		c0,0.9-0.1,2.1,0,3.2l0,0c0.1,1.1,0.5,2,1.5,2.3c0,0,0,0,0,0C439.8,568.3,440.7,568.3,442,567.9z"/>
	<path class="st4" d="M349,755.7h-0.2c0,0,0,0,0-0.1C348.8,755.6,348.9,755.6,349,755.7z"/>
	<path class="st4" d="M401.5,746.5c-0.2,0.1-0.4,0.2-0.6,0.4c0-0.2,0-0.5,0.1-0.7C401.2,746.2,401.3,746.4,401.5,746.5z"/>
	<path class="st5" d="M436.4,272.2c-0.6,6.2-2,12.4-3.4,18.5c-2.6,11.8-7.4,22.8-12.6,33.6c1.1-4.4,3.8-8.3,5.4-12.5
		c2.9-7.6,6.2-14.9,7.2-23.1c0.4-3.8,1.6-7.5,2.5-11.1C435.9,275.8,436.2,274,436.4,272.2z"/>
	<path class="st5" d="M442,567.9c-0.5,0.3-0.9,0.5-1.3,0.7c0,0,0,0,0,0c-2.7,1.1-3.8-0.7-3.6-3.6c0-0.2,0-0.3,0-0.5c0,0,0,0,0,0
		c0,0,0,0,0,0c0.3-5.3-0.1-10.5-0.8-15.6c0-0.1,0-0.3-0.1-0.4c-1-6.8-2.6-13.5-4.3-20.2c-2.5-9.8-6.2-19.1-10.4-28.3
		c-4.6-9.9-10.2-19.3-15-29.2c0,0,0,0,0,0c0-0.1-0.1-0.1-0.1-0.2c-2-4.1-4.6-7.9-7.4-11.6c0,0-0.1-0.1-0.1-0.2
		c-2.5-3.2-5.3-6.4-8-9.5c-0.7-0.8-1.6-1.5-2.2-2.3c0,0,0,0,0,0c-0.4-0.6-0.7-1.2-0.7-2.1c8.6,7.9,15.7,17,21,27.4
		c3.1,6.2,6.6,12.2,9.9,18.4c8.7,16.3,14.6,33.5,18.1,51.7c1.2,6.5,0.6,12.9,1.1,19.4C438.3,564.3,437.6,567.8,442,567.9z"/>
	<path class="st5" d="M420,326.9C420,326.9,420,326.9,420,326.9c-4.2,10.3-10,19.7-15.4,29.3c-6.4,11.4-15.5,20.2-24.6,29.1
		c-2.5,2.5-5,5.5-9,5.6c0.1-0.1,0.2-0.2,0.4-0.3c0.8-0.6,1.6-1.2,2.4-1.9c0,0,0,0,0,0c12.7-10.2,23.4-22.3,31.7-36.3
		c3.7-6.3,6.8-13.1,10.3-19.6c0.9-1.6,1.5-3.3,2.7-4.6c0,0,0,0,0,0C419,327.7,419.4,327.3,420,326.9z"/>
	<path class="st5" d="M347,402.9c-7.5,4.3-15.7,4.5-24,4C331.2,406.8,339.3,405.7,347,402.9z"/>
	<path class="st6" d="M538.9,608.8c0,0-0.1,0.1-0.1,0.1C538.8,608.8,538.9,608.8,538.9,608.8z"/>
	<path class="st6" d="M550.9,547.6v0.3c0,0.2,0,0.3-0.1,0.5c0-0.1,0-0.3,0-0.4c0,0,0,0,0,0C550.8,547.7,550.9,547.7,550.9,547.6z"/>
	<path class="st6" d="M591.9,251.9L591.9,251.9C591.9,252,591.9,252,591.9,251.9L591.9,251.9z"/>
	<path class="st7" d="M457.1,121.8C457.1,121.8,457.1,121.8,457.1,121.8c0,0-0.1,0-0.1,0c0,0,0,0,0,0
		C457,121.8,457.1,121.8,457.1,121.8z"/>
	<path class="st8" d="M457.1,121.8C457.1,121.8,457.1,121.8,457.1,121.8c0,0-0.1,0-0.1,0c0,0,0,0,0,0
		C457,121.8,457.1,121.8,457.1,121.8z"/>
	<path class="st9" d="M5.6,599.9c-0.4,0-2-0.2-3.6-5c-0.7-1.5-1.3-2.9-2.1-4.3V251.1C0,251,0,251,0,250.9c0-0.6,0-2.9,1.6-4.7
		c1.6-1.8,4.5-3,6.7-1.9c1.7,0.9,2.4,2.9,2.6,3.9c0.3,1.3,0.1,2.7,0.1,4v337.1C12.5,597.4,7.6,600,5.6,599.9z"/>
	<path class="st9" d="M562,200.1c-1.3-1.1-2.6-2.2-4-3.2c-2.2-1.4-4-3.3-6.7-4.2c-3.8-1.3-5.5-0.9-5.3,3.7
		c0.3,7.8,0.1,15.6,0.1,23.5c0,23.3,0,46.6,0,69.9c0,1.8,0,3.7,0.3,5.5c0.3,1.4,0.6,2.7-1,3.4c-1.3,0.5-2.6,0.6-3.8-0.1
		c-1.3-0.7-0.9-1.8-0.9-3c0.7-22.9,0.6-45.8-4.9-68.2c-3.8-15.4-10.4-29.8-17.4-44.1c-7.6-15.4-13.7-27.5-24.1-39.3
		c-16.2-18.4-34.2-26.2-61.4-37.6c-32.4-13.6-59.3-19-69.2-20.8c-26.7-4.9-68.7-9.5-120.8-1.6c-0.8,0.9-1.3,1.6-1.6,2.1
		c0,104.6,0,209.1,0,313.7c0,2.1-0.9,4.4,0.9,6.2c2.4,1.8,5.1,2,8,2c22.3-0.1,44.5,0,66.8-0.1c1.8,0,3.7,0.6,5.2-0.9l0.5,0l0.5,0
		c8.2-0.1,16.3-1.2,24-4c8.7-2.6,16.9-6.1,24-12c0.1-0.1,0.2-0.2,0.4-0.3c0.8-0.6,1.6-1.2,2.4-1.9c0,0,0,0,0,0
		c12.7-10.2,23.4-22.3,31.7-36.3c3.7-6.3,6.8-13.1,10.3-19.6c0.9-1.6,1.5-3.3,2.7-4.6c0,0,0,0,0,0c0.3-0.7,0.6-1.3,0.9-2
		c0.3-0.5,0.6-1,0.9-1.5c0-0.1,0.1-0.2,0.2-0.3c-0.2,0.8-0.3,1.6-0.4,2.5c3.4-4.3,4.9-9.5,7.2-14.4c5.2-10.9,7.3-22.6,9.8-34.3
		c1.4-6.3,0.7-12.6,0.9-18.9c0.1-1.8,0.6-3.8,2.5-3.7c1.9,0.1,1.4,2.3,1.5,3.7c0,0.5,0,1,0,1.5c0,102.3,0,204.7,0,307
		c-0.5,0.3-0.9,0.5-1.3,0.7c0,0,0,0,0,0c-2.7,1.1-3.8-0.7-3.6-3.6c0-0.2,0-0.3,0-0.5c0,0,0,0,0,0c0,0,0,0,0,0
		c-0.4-1.8-0.4-3.7-0.4-5.5c0-3.4-0.1-6.8-0.4-10.1c0-0.1,0-0.3-0.1-0.4c-1-6.8-2.6-13.5-4.3-20.2c-2.5-9.8-6.2-19.1-10.4-28.3
		c-4.6-9.9-10.2-19.3-15-29.2c0,0,0,0,0,0c-1.3-2.2-2.6-4.3-3.9-6.4c-1.1-1.8-2.3-3.6-3.6-5.3c0,0-0.1-0.1-0.1-0.2
		c-2.5-3.2-5.3-6.4-8-9.5c-0.7-0.8-1.6-1.5-2.2-2.3c0,0,0,0,0,0c-0.4-0.6-0.7-1.2-0.7-2.1c-6-8-14.2-13.7-22.8-18.1
		c-9.9-5.1-20.5-8.9-32.1-9c-1.4,0-3.1-0.4-4.3-1.2c-3.9-2.3-8.1-2.7-12.5-2.7c-22.5,0-45-0.1-67.5-0.1c-7,0-7,0-7,7
		c0,109.3,0,218.6,0,327.9c0,1.7,0,3.1,0.1,4.2v4.1c0.3,0.5,0.6,1,0.8,1.5c0.6,1.4,3,0.4,3.3,0.4c4.4-1,44.4,7.1,91.4,4
		c19.8-1.3,37.8-2.5,60.4-10.2c18.2-6.2,36-15.5,47.2-21.4c10-5.2,18.1-9.9,23.8-13.4l-0.1-0.1c0,0,0,0,0,0
		c9.4-6.3,16.7-11.4,17.8-12.2c6.1-4.4,8.8-11.1,16.1-21.5c9-12.7,17.7-25.6,24.8-39.5c6.5-12.7,12.8-25.6,17.1-39.2
		c3.9-12.1,7.3-24.4,8.7-37.2c1.2-11.2,3.6-22.3,3.4-33.6c-0.1-7,0.9-14-0.7-20.9c-0.5-2,0.5-4.1,2.5-4.2c2.7-0.3,2.2,2.2,2.4,4
		c0,0.5,0,1,0,1.5c0,36.8,0,73.6,0,110.4c0,0.6,0.2,2,0,4c-0.4,4.2-1.8,6.3-1.4,6.6c0.5,0.4,4-2.6,15.3-15.5
		c7.6-9.9,13.9-20.7,20.3-31.5V246.8C588.5,230.7,578.1,214,562,200.1z M256.3,406.5c-0.1,0-0.1,0-0.2,0
		C256.2,406.5,256.2,406.5,256.3,406.5C256.3,406.5,256.3,406.5,256.3,406.5z M433,290.7c-2.6,11.8-7.4,22.8-12.6,33.6
		c1.1-4.4,3.8-8.3,5.4-12.5c2.9-7.6,6.2-14.9,7.2-23.1c0.4-3.8,1.6-7.5,2.5-11.1c0.4-1.8,0.7-3.6,1-5.4
		C435.8,278.5,434.4,284.6,433,290.7z M437,261.8c0.1,3.4-0.1,6.8-0.5,10.1c0.3-3.4,0.4-6.8,0.2-10.3c-0.1-0.7,0-1.3,0.1-2
		c0.1-0.5,0.2-1,0.3-1.5c0,0.4,0,0.8,0,1.2C437,260.2,437,261,437,261.8z M348.8,755.7C348.8,755.7,348.8,755.6,348.8,755.7
		c0,0,0.1,0,0.2,0H348.8z M457,121.8c0,0,0.1,0,0.1,0c0,0,0,0,0,0C457.1,121.8,457,121.8,457,121.8C457,121.8,457,121.8,457,121.8z
		 M513.8,184C513.8,184,513.8,184,513.8,184C513.8,184,513.8,184,513.8,184C513.8,184,513.8,184,513.8,184z M538.8,608.9
		c0-0.1,0.1-0.1,0.1-0.1C538.9,608.8,538.8,608.8,538.8,608.9z M550.9,547.9c0,0.2,0,0.3-0.1,0.5C550.8,548.2,550.8,548,550.9,547.9
		C550.8,547.9,550.8,547.9,550.9,547.9c0-0.1,0-0.2,0-0.3V547.9z M591.2,244.9c-0.1,0.1-0.2,0.1-0.3,0.2v0L591.2,244.9
		C591.1,244.8,591.2,244.8,591.2,244.9C591.2,244.8,591.2,244.8,591.2,244.9z M591.9,252C591.9,252,591.9,252,591.9,252L591.9,252
		L591.9,252z"/>
	<path class="st10" d="M349,755.7h-0.2c0,0,0,0,0-0.1C348.8,755.6,348.9,755.6,349,755.7z"/>
	<path class="st10" d="M538.9,608.8c0,0-0.1,0.1-0.1,0.1C538.8,608.8,538.9,608.8,538.9,608.8z"/>
	<path class="st10" d="M550.9,547.6v0.3c0,0.2,0,0.3-0.1,0.5c0-0.1,0-0.3,0-0.4c0,0,0,0,0,0C550.8,547.7,550.9,547.7,550.9,547.6z"
		/>
	<path class="st10" d="M591.9,251.9L591.9,251.9C591.9,252,591.9,252,591.9,251.9L591.9,251.9z"/>
	<path class="st11" d="M349,755.7h-0.2c0,0,0,0,0-0.1C348.8,755.6,348.9,755.6,349,755.7z"/>
	<path class="st12" d="M538.9,608.8c0,0-0.1,0.1-0.1,0.1C538.8,608.8,538.9,608.8,538.9,608.8z"/>
	<path class="st12" d="M550.9,547.6v0.3c0,0,0,0,0,0C550.8,547.7,550.9,547.7,550.9,547.6z"/>
	<path class="st13" d="M591.9,251.9L591.9,251.9C591.9,252,591.9,252,591.9,251.9L591.9,251.9z"/>
	<path class="st13" d="M591.9,251.9L591.9,251.9C591.9,252,591.9,252,591.9,251.9L591.9,251.9z"/>
	<path class="st14" d="M550.9,547.6v0.3c0,0,0,0,0,0c0,0,0,0,0,0C550.8,547.7,550.9,547.7,550.9,547.6z"/>
	<path class="st15" d="M349,755.7h-0.2c0,0,0,0,0-0.1C348.8,755.6,348.9,755.6,349,755.7z"/>
</g>
</svg>
