<?xml version="1.0" standalone="no"?>
<!DOCTYPE svg PUBLIC "-//W3C//DTD SVG 20010904//EN"
 "http://www.w3.org/TR/2001/REC-SVG-20010904/DTD/svg10.dtd">
<svg version="1.0" xmlns="http://www.w3.org/2000/svg"
 width="709.000000pt" height="709.000000pt" viewBox="0 0 709.000000 709.000000"
 preserveAspectRatio="xMidYMid meet">
<metadata>
Created by potrace 1.11, written by Peter Selinger 2001-2013
</metadata>
<g transform="translate(0.000000,709.000000) scale(0.100000,-0.100000)"
fill="#000000" stroke="none">
<path d="M3309 7086 c-2 -2 -40 -6 -84 -10 -273 -20 -611 -97 -889 -202 -827
-312 -1496 -915 -1906 -1717 -168 -330 -311 -787 -346 -1112 -3 -27 -7 -56 -9
-63 -27 -81 -26 -762 0 -893 3 -13 10 -55 15 -94 51 -355 192 -785 367 -1114
31 -59 64 -118 74 -133 11 -14 19 -29 19 -33 0 -14 171 -265 245 -360 493
-631 1163 -1068 1930 -1259 55 -13 118 -27 140 -30 22 -4 47 -8 55 -11 25 -8
210 -33 300 -42 108 -10 526 -10 646 0 203 17 522 81 732 148 949 302 1745
1028 2149 1959 130 299 235 683 268 985 3 28 10 86 14 130 14 124 6 621 -13
750 -39 279 -84 473 -161 702 -165 487 -412 907 -755 1277 -597 646 -1383
1035 -2255 1115 -85 8 -529 13 -536 7z"/>
</g>
</svg>
